<svg id="Layer_1" data-name="Layer 1" xmlns="http://www.w3.org/2000/svg" viewBox="0 0 472.32 139.01"><defs><style>.cls-1{fill:#eb5352;}.cls-2{fill:#645a53;}</style></defs><title>Artboard 1 copy</title><path class="cls-1" d="M163.27,78.55a4.39,4.39,0,0,0-1.93-.9,93.48,93.48,0,0,1-13.77,11.47,12.83,12.83,0,0,1-6.44,2.08c-4,0-5.74-3.81-6.26-9.87-.69-8.13-1.16-17.87-1.16-32.93,0-15.44-3.51-25.94-12.84-26.76a11.81,11.81,0,0,0-1.21-.06c-5.73,0-8.51,2.94-12.16,10.38-3.12,6.41-8,15.75-17,33.4-7.82,15.23-16.5,28.73-24,38.07a25.92,25.92,0,0,1-5.27,5.39,5.53,5.53,0,0,1-3.07,1c-2.94,0-5.09-2.48-5.81-8.28a38.33,38.33,0,0,1-.26-4.69c0-11.94,4.51-31.33,12.33-59.88C70.17,16.22,67.74,2,55.23,2h-.15a11.84,11.84,0,0,0-7.44,2.84c-2.22,1.75-4.45,5.54-6.54,10.63C38.76,21.23,24.5,49.83,1.81,64.57c-.27,5.6,2.9,11.2,9.33,11.81,5.85.55,10-1.91,15.35-5.51l-1.11,5c-.4,1.81-.74,3.37-1,4.62-.41,1.87-.67,3.07-.74,3.41A92.25,92.25,0,0,0,22,93.59c-3.2,28.61,10.06,42.72,25.58,42.72a31.1,31.1,0,0,0,7.72-1c17.1-4.34,33.57-24,53.06-69.12A127.49,127.49,0,0,0,108.26,80c1.28,25.88,11.52,33.65,26,33.65,10.94,0,21.18-5.71,26.39-12.8A25.26,25.26,0,0,0,166,86C166,82.6,165,79.92,163.27,78.55Z"/><path class="cls-2" d="M198.5,42.77V10.14h14V42.51c0,11.63,5.22,14,12.4,14,7.78,0,11.8-3.41,11.8-14V10.14h14.11V42.77C250.83,62,242.45,70,224.24,70,207.31,70,198.5,63.12,198.5,42.77ZM289.77,65.6a20.65,20.65,0,0,1-13.25,4.27c-12.06,0-20.78-7.44-20.78-22.74s10-23.43,22.83-23.43a23.58,23.58,0,0,1,8.55,1.46V6.47h13.51V68.85h-8.55Zm-10.43-7.27A11.78,11.78,0,0,0,287.12,56V36.87A13.26,13.26,0,0,0,279.77,35c-6.59,0-10.35,4.44-10.35,11.88C269.42,54.14,273.27,58.33,279.34,58.33ZM329.17,69.7c-13,0-23.42-6.41-23.42-23.34,0-15.82,10.09-22.66,21.71-22.66,14,0,20.27,9.84,20.27,25.31h-28.3c.94,7.61,5.64,9.83,11.88,9.83A26.23,26.23,0,0,0,345,55.34l-1.88,10.77C339.6,68.59,335.16,69.7,329.17,69.7Zm-9.66-27.19h17.36c-.94-5.73-4-8.46-8.64-8.46C324.3,34.05,320.54,36.36,319.51,42.51Zm47.12-3.76v30.1H353.12v-44h9.49l2.82,3.85c3.68-3.08,7.61-4.87,12.14-4.87,6.07,0,10.69,1.79,13.51,6.24,4.1-3.76,8.46-6.24,14-6.24,10.43,0,16.5,5.38,16.5,20v25H408.09V45.33c0-6.75-2.73-8.72-7.09-8.72a12.42,12.42,0,0,0-7.1,2.23,44.68,44.68,0,0,1,.26,5v25H380.65V45.33c0-6.75-2.74-8.72-7.18-8.72A11.54,11.54,0,0,0,366.63,38.75Zm66.85,44.77h13.39L470,24.81H456.79l-9.58,29.25L437.12,24.81H422.33l17.61,42.41Z"/><path class="cls-2" d="M206.9,105.88v17.36h-3.68V105.88h-2.88v-2.79h2.88v-2.8c0-6.56,2.76-8.4,6.88-8.4a10.18,10.18,0,0,1,3,.44l.28,3.44a6.63,6.63,0,0,0-2.48-.44c-2.8,0-4,1.48-4,4.84v2.92h5v2.79Z"/><path class="cls-2" d="M213.41,113.2c0-6.32,3.68-10.63,9.51-10.63,6.08,0,9.56,4,9.56,10.55,0,6.36-3.72,10.6-9.64,10.6S213.41,119.84,213.41,113.2Zm15.39-.12c0-4.64-2.4-7.32-5.88-7.32s-5.83,2.72-5.83,7.32c0,4.84,2.52,7.44,5.87,7.44S228.8,117.88,228.8,113.08Z"/><path class="cls-2" d="M239.89,109v14.23h-3.68V103.09h2.88l.72,3a9.28,9.28,0,0,1,7.59-3.48v3.56A12.48,12.48,0,0,0,239.89,109Z"/><path class="cls-2" d="M260.25,109.05c0-10.56,5.27-15.52,13.83-15.52a15.74,15.74,0,0,1,7.92,1.8l.64,4.08a15,15,0,0,0-8.2-2.36c-6.56,0-10.28,4.52-10.28,11.39,0,8.76,4.4,11.84,9.68,11.84a14.78,14.78,0,0,0,5.68-1V108h3.84v13.43a20.7,20.7,0,0,1-9.68,2.32C267.6,123.76,260.25,120.64,260.25,109.05Z"/><path class="cls-2" d="M287.74,113.2c0-6.32,3.68-10.63,9.52-10.63,6.07,0,9.55,4,9.55,10.55,0,6.36-3.72,10.6-9.63,10.6S287.74,119.84,287.74,113.2Zm15.39-.12c0-4.64-2.39-7.32-5.87-7.32s-5.84,2.72-5.84,7.32c0,4.84,2.52,7.44,5.88,7.44S303.13,117.88,303.13,113.08Z"/><path class="cls-2" d="M318.12,123.24h-2l-8.52-20.15h3.92l5.76,13.75,6-13.75H327Z"/><path class="cls-2" d="M337.37,123.64c-5.28,0-9.64-2.92-9.64-10.56,0-7.07,4.28-10.47,9.24-10.47,5.8,0,8.48,3.84,8.48,11.15h-14c.28,5.12,3.08,6.6,6.28,6.6a11.3,11.3,0,0,0,6.44-1.84l-.52,3.68A11.77,11.77,0,0,1,337.37,123.64ZM331.53,111h10.68c-.48-3.51-2.2-5.23-5.16-5.23C334.57,105.73,332.13,107.17,331.53,111Z"/><path class="cls-2" d="M352.77,109v14.23h-3.68V103.09H352l.72,3a9.31,9.31,0,0,1,7.6-3.48v3.56A12.5,12.5,0,0,0,352.77,109Z"/><path class="cls-2" d="M366.78,108.13v15.11H363.1V103.09h2.84l.76,1.84a7.9,7.9,0,0,1,5.59-2.32c4.68,0,7.4,2.48,7.4,8.31v12.32H376V111.52c0-4.11-1.56-5.35-4.28-5.35A7.4,7.4,0,0,0,366.78,108.13Z"/><path class="cls-2" d="M388.22,107.93v15.31h-3.68V103.09h2.84l.68,1.68a7.36,7.36,0,0,1,5.2-2.16c2.88,0,5,.92,6.24,3a8.28,8.28,0,0,1,6.2-3c4.71,0,7.39,2.48,7.39,8.27v12.36h-3.68V111.52c0-4.15-1.59-5.35-4.27-5.35a7,7,0,0,0-4.76,1.84,12.41,12.41,0,0,1,.28,2.87v12.36H397V111.52c0-4.15-1.56-5.35-4.28-5.35A6.61,6.61,0,0,0,388.22,107.93Z"/><path class="cls-2" d="M426.34,123.64c-5.28,0-9.64-2.92-9.64-10.56,0-7.07,4.28-10.47,9.24-10.47,5.8,0,8.48,3.84,8.48,11.15h-14c.28,5.12,3.08,6.6,6.28,6.6a11.3,11.3,0,0,0,6.44-1.84l-.52,3.68A11.77,11.77,0,0,1,426.34,123.64ZM420.5,111h10.68c-.48-3.51-2.2-5.23-5.16-5.23C423.54,105.73,421.1,107.17,420.5,111Z"/><path class="cls-2" d="M441.76,108.13v15.11h-3.68V103.09h2.84l.76,1.84a7.94,7.94,0,0,1,5.6-2.32c4.68,0,7.4,2.48,7.4,8.31v12.32H451V111.52c0-4.11-1.56-5.35-4.28-5.35A7.44,7.44,0,0,0,441.76,108.13Z"/><path class="cls-2" d="M466,123.68c-3.6,0-6-1.4-6-6.44V105.88h-2.52v-2.79H460V96.57h3.68v6.52h5.48v2.79h-5.48V117c0,2.32.84,3.32,3,3.32a8.59,8.59,0,0,0,2.72-.52l-.48,3.4A7.34,7.34,0,0,1,466,123.68Z"/></svg>